HIERARCHY
ROOT Hips
{
    OFFSET 0.000000 0.000000 0.000000
    CHANNELS 6 Xposition Yposition Zposition Zrotation Yrotation Xrotation
    JOINT LeftUpLeg
    {
        OFFSET 8.740861 -9.108876 4.902500
        CHANNELS 3 Zrotation Yrotation Xrotation
        JOINT LeftLeg
        {
            OFFSET 12.704811 -34.906269 0.000000
            CHANNELS 3 Zrotation Yrotation Xrotation
            JOINT LeftFoot
            {
                OFFSET 13.565074 -37.269806 0.000000
                CHANNELS 3 Zrotation Yrotation Xrotation
                JOINT LeftToeBase
                {
                    OFFSET 0.984101 -2.703724 11.427257
                    CHANNELS 3 Zrotation Yrotation Xrotation
                    End Site
                    {
                        OFFSET 0.000000 0.000000 0.000000
                    }
                }
            }
        }
    }
    JOINT RightUpLeg
    {
        OFFSET -8.730137 -9.108876 4.902500
        CHANNELS 3 Zrotation Yrotation Xrotation
        JOINT RightLeg
        {
            OFFSET -12.876683 -35.378479 0.000000
            CHANNELS 3 Zrotation Yrotation Xrotation
            JOINT RightFoot
            {
                OFFSET -14.203343 -39.023407 0.000000
                CHANNELS 3 Zrotation Yrotation Xrotation
                JOINT RightToeBase
                {
                    OFFSET -0.853659 -2.345361 12.479204
                    CHANNELS 3 Zrotation Yrotation Xrotation
                    End Site
                    {
                        OFFSET 0.000000 0.000000 0.000000
                    }
                }
            }
        }
    }
    JOINT Spine
    {
        OFFSET -0.241975 12.765432 -1.450046
        CHANNELS 3 Zrotation Yrotation Xrotation
        JOINT Spine1
        {
            OFFSET 0.126886 12.891528 -0.572342
            CHANNELS 3 Zrotation Yrotation Xrotation
            JOINT Neck1
            {
                OFFSET -0.657234 7.817269 0.640357
                CHANNELS 3 Zrotation Yrotation Xrotation
                JOINT Head
                {
                    OFFSET 1.658494 7.710251 0.374901
                    CHANNELS 3 Zrotation Yrotation Xrotation
                    End Site
                    {
                        OFFSET 0.000000 0.000000 0.000000
                    }
                }
            }
            JOINT LeftShoulder
            {
                OFFSET 0.000000 0.000000 0.000000
                CHANNELS 3 Zrotation Yrotation Xrotation
                JOINT LeftArm
                {
                    OFFSET 19.847290 3.360789 -1.712850
                    CHANNELS 3 Zrotation Yrotation Xrotation
                    JOINT LeftForeArm
                    {
                        OFFSET 26.890203 -0.000000 0.000000
                        CHANNELS 3 Zrotation Yrotation Xrotation
                        JOINT LeftHand
                        {
                            OFFSET 17.709812 -0.000000 -0.000000
                            CHANNELS 3 Zrotation Yrotation Xrotation
                            End Site
                            {
                                OFFSET 0.000000 0.000000 0.000000
                            }
                        }
                    }
                }
            }
            JOINT RightShoulder
            {
                OFFSET 0.000000 0.000000 0.000000
                CHANNELS 3 Zrotation Yrotation Xrotation
                JOINT RightArm
                {
                    OFFSET -18.682400 4.753319 -2.056255
                    CHANNELS 3 Zrotation Yrotation Xrotation
                    JOINT RightForeArm
                    {
                        OFFSET -28.795528 -0.000000 -0.000000
                        CHANNELS 3 Zrotation Yrotation Xrotation
                        JOINT RightHand
                        {
                            OFFSET -18.246483 -0.000000 -0.000000
                            CHANNELS 3 Zrotation Yrotation Xrotation
                            End Site
                            {
                                OFFSET 0.000000 0.000000 0.000000
                            }
                        }
                    }
                }
            }
        }
    }
}
MOTION
Frames: 15
Frame Time: 0.016667
-96.058662 78.088020 -79.541451 22.070602 72.064903 44.185997 -23.791014 6.476802 12.611002 0.564399 4.811697 13.372394 0.775900 -1.043400 17.050501 1.838899 -8.522200 -24.311899 8.190704 20.985508 -69.209801 -15.745492 -19.560398 77.472389 -1.010800 -2.404000 -20.001499 -1.331000 7.305697 -20.624100 -8.088191 -11.923291 23.568695 7.924103 -3.575701 0.309900 4.731255 -4.374579 -21.195295 7.813204 -1.047501 -3.668102 0.000000 0.000000 0.000000 -83.974121 -10.678402 42.919498 60.027527 -56.317341 -34.364006 0.000000 0.000000 -20.608200 0.000000 0.000000 0.000000 87.091904 13.014598 -6.511704 -101.215492 59.519295 -69.697304 0.000000 0.000000 -54.001801 
-91.039658 78.456596 -78.774376 22.662794 70.721931 44.505795 -25.508314 7.075105 18.703800 0.169900 2.655002 7.319699 1.012999 3.155500 18.227207 2.930400 -10.581499 -30.881100 8.870101 20.990307 -69.606514 -13.707802 -19.022999 71.310112 -1.071100 0.130100 -19.527807 -0.808300 5.737701 -16.025408 -7.729947 -12.692674 23.100361 7.600501 -3.788601 0.646800 4.001518 -3.107179 -21.652889 7.101002 -0.667400 -3.714400 0.000000 0.000000 0.000000 -82.876617 -7.902390 43.217991 57.285526 -55.542118 -32.092510 0.000000 0.000000 -20.974199 0.000000 0.000000 0.000000 88.398697 13.118906 -5.793904 -112.170197 58.058807 -79.074806 0.000000 0.000000 -49.097301 
-86.142014 78.663742 -77.970612 24.689800 69.294022 46.144413 -27.374508 7.937006 22.279911 0.096200 2.000200 5.506097 0.971200 7.357402 17.610100 2.153500 -9.178793 -26.356201 10.034299 19.908600 -69.557182 -11.929107 -18.360510 65.764114 -1.017200 1.200000 -18.699900 -0.931800 6.149000 -17.217501 -8.127975 -13.593002 22.833115 8.026500 -4.074002 0.769800 2.617914 -1.588290 -22.050810 6.345200 -0.168400 -3.934700 0.000000 0.000000 0.000000 -82.814812 -4.421902 43.566521 53.594112 -54.346115 -29.070190 0.000000 0.000000 -20.688696 0.000000 0.000000 0.000000 89.024506 14.288394 -3.928400 -121.771317 55.819241 -87.128517 0.000000 0.000000 -42.896702 
-81.184532 78.581337 -77.123390 25.589308 67.364700 46.155201 -29.714615 8.417004 22.649212 0.330800 3.696602 10.224704 0.809600 7.519599 16.120399 2.078101 -9.026901 -25.879604 11.810299 18.957901 -68.294701 -10.573301 -17.719904 61.387974 -0.983100 1.897101 -18.197908 -0.906600 6.067502 -16.980394 -9.007681 -13.860380 23.026934 9.434800 -4.225202 0.958700 0.731883 -0.012714 -22.440216 5.725503 0.374400 -4.080200 0.000000 0.000000 0.000000 -84.138908 -1.227201 44.386803 48.298801 -52.285900 -24.821909 0.000000 0.000000 -21.004499 0.000000 0.000000 0.000000 88.161186 16.505209 -1.271802 -129.409500 53.230907 -93.353607 0.000000 0.000000 -37.418102 
-76.348412 78.427246 -76.209557 25.798712 66.210106 45.688095 -30.353914 10.236706 19.969604 1.071400 6.580000 18.476892 0.780800 2.888999 15.966300 2.658203 -10.120103 -29.366432 14.455812 17.452402 -66.512703 -9.644399 -17.205009 58.293098 -0.887300 1.880400 -17.265207 -1.150901 6.811604 -19.158409 -9.052871 -14.327133 23.090500 9.813407 -4.365300 0.973400 -0.186336 1.608530 -22.459572 4.965502 0.886000 -4.496400 0.000000 0.000000 0.000000 -84.796906 2.502501 45.207615 43.379391 -49.949406 -20.990801 0.000000 0.000000 -21.162508 0.000000 0.000000 0.000000 87.874237 19.438110 1.444701 -134.949905 50.792995 -97.722397 0.000000 0.000000 -30.046713 
-71.517937 77.996017 -75.258476 24.780115 65.349808 44.143318 -30.221088 11.956196 16.474998 2.410400 9.673102 27.924509 0.620900 -0.611000 15.120215 3.234000 -11.064500 -32.497704 17.337906 16.091999 -64.177605 -9.229396 -16.953094 56.880001 -0.692100 1.791701 -15.207199 -0.546500 4.735902 -13.156804 -8.436418 -14.435612 23.016544 10.198100 -4.384802 1.215200 -0.725850 2.699178 -22.857359 4.454904 1.224500 -4.708000 0.000000 0.000000 0.000000 -85.875107 5.891101 46.512707 38.353413 -47.063530 -17.223907 0.000000 0.000000 -20.511707 0.000000 0.000000 0.000000 87.335503 23.255293 5.028000 -138.864807 48.728317 -100.711906 0.000000 0.000000 -21.960194 
-66.689713 77.467697 -74.323769 25.243328 64.613045 43.764141 -30.166712 12.878803 13.019305 4.377998 12.647202 38.061600 0.576300 0.807300 14.086411 1.440700 -7.588400 -21.470808 19.537012 13.786406 -61.672421 -9.619102 -17.190004 58.207603 -0.578700 -0.244800 -14.464298 -0.859700 -5.912502 16.530905 -8.206295 -14.625355 23.151373 10.448100 -4.433602 1.294301 -1.032167 3.518160 -23.127602 3.828202 1.461001 -4.863302 0.000000 0.000000 0.000000 -87.408501 9.162601 47.823395 33.280224 -43.544323 -13.614708 0.000000 0.000000 -19.800312 0.000000 0.000000 0.000000 86.599915 27.205708 9.257302 -141.561752 47.117027 -102.714050 0.000000 0.000000 -12.174100 
-61.919071 77.069763 -73.222542 24.284918 64.265656 42.208633 -28.781401 14.140600 8.491604 7.070302 15.390801 49.139721 0.395100 2.809300 11.238496 1.561601 -7.885903 -22.368210 20.348700 13.238004 -57.901508 -10.499002 -17.680996 61.143402 -1.433000 -0.717000 -22.903708 -1.538699 -7.830800 22.201389 -6.984980 -14.310816 23.057919 8.265604 -4.273602 1.740100 1.001772 4.209453 -23.619076 3.633300 1.552701 -4.999800 0.000000 0.000000 0.000000 -86.803619 12.364899 48.814007 29.185310 -40.184818 -10.880113 0.000000 0.000000 -18.345501 0.000000 0.000000 0.000000 88.092293 31.230108 14.161003 -143.941513 45.553318 -104.435829 0.000000 0.000000 -2.422799 
-57.357826 76.466385 -72.148415 22.577303 64.319214 39.772190 -26.587099 14.449106 3.269199 10.564998 17.715509 61.360603 0.168200 4.522104 7.479209 2.091201 -9.053404 -25.962597 20.951897 13.203603 -54.357399 -11.285702 -18.072107 63.705906 -2.088500 -0.824200 -27.653717 -0.975401 -6.287203 17.620211 -5.512595 -13.582766 23.766121 8.500401 -3.955899 1.273900 0.941971 4.140378 -24.231443 3.509903 1.544801 -5.122701 0.000000 0.000000 0.000000 -88.717804 15.169000 49.723213 24.856501 -36.056999 -8.205296 0.000000 0.000000 -16.414301 0.000000 0.000000 0.000000 85.893806 34.908802 18.762703 -145.129318 44.719604 -105.277718 0.000000 0.000000 5.762204 
-53.036480 75.879929 -71.103638 17.391901 64.757019 34.495499 -22.829601 14.041700 -2.884601 14.388101 19.227505 73.386322 0.008500 5.151699 3.877100 1.678300 -8.161201 -23.204704 23.501301 13.243803 -50.500599 -11.730805 -18.274509 65.132927 -2.517800 -1.383000 -30.546000 -0.818200 -5.771700 16.123405 -2.326438 -12.268431 24.427479 7.282306 -3.352301 0.827400 2.087996 3.491751 -25.280890 3.516100 1.326701 -5.581300 0.000000 0.000000 0.000000 -89.568733 17.492804 49.637806 20.948498 -31.768087 -6.022798 0.000000 0.000000 -13.981100 0.000000 0.000000 0.000000 84.130432 38.514320 23.476213 -145.190704 44.675491 -105.320900 0.000000 0.000000 12.040008 
-48.636105 75.586983 -70.066193 10.170705 65.220825 27.028015 -18.164801 13.054701 -8.599396 17.815100 19.885201 83.599998 -0.037000 3.890900 0.573600 1.591401 -7.957505 -22.584906 27.278009 12.055801 -45.288712 -11.615501 -18.223413 64.764824 -2.940102 -1.450100 -33.004311 -0.539800 -4.707603 13.076402 1.804585 -10.877820 25.801405 6.722204 -2.626402 0.011600 1.879050 2.737232 -26.236887 4.022402 1.171401 -5.733505 0.000000 0.000000 0.000000 -91.604904 19.557999 48.455112 17.174412 -27.087112 -4.166401 0.000000 0.000000 -10.842500 0.000000 0.000000 0.000000 79.981720 41.646126 26.865816 -143.406799 45.916786 -104.052795 0.000000 0.000000 17.031004 
-44.265079 75.511909 -68.955383 5.753398 65.176025 22.360600 -15.153704 10.640703 -14.687106 20.579206 19.992016 91.693611 -0.013200 2.790099 1.014799 0.598300 -4.951499 -13.770300 29.404312 10.174200 -40.374798 -11.238406 -18.049799 63.553223 -3.366001 -0.297500 -34.921516 -0.437800 -4.245900 11.769608 4.755343 -9.011219 26.682989 4.833302 -1.880800 -0.074900 3.310188 0.766727 -27.569967 4.431000 0.562300 -5.900700 0.000000 0.000000 0.000000 -91.181183 20.787094 47.868496 14.110606 -22.892611 -2.871001 0.000000 0.000000 -7.310404 0.000000 0.000000 0.000000 76.531097 43.673698 28.385401 -139.647293 48.277512 -101.297897 0.000000 0.000000 22.212099 
-40.048149 75.544083 -67.718124 5.286811 64.741333 22.271521 -14.194099 6.989299 -21.998804 22.588413 19.838612 97.587532 0.006900 0.592900 -1.902600 1.068500 -6.571302 -18.451208 29.379414 8.552507 -36.785313 -10.837701 -17.854710 62.253304 -3.651199 0.629300 -36.117393 -0.226900 -3.066001 8.462505 5.499447 -6.576609 26.392569 3.944397 -1.165900 -0.522600 4.466883 -1.649684 -28.274614 4.700802 -0.189900 -5.806000 0.000000 0.000000 0.000000 -89.263809 23.431898 49.439011 13.476403 -21.981308 -2.628902 0.000000 0.000000 -6.191300 0.000000 0.000000 0.000000 72.744797 43.460796 28.084402 -132.593842 51.894329 -95.882446 0.000000 0.000000 25.981100 
-35.778156 75.779457 -66.331856 4.941299 64.383751 22.541512 -13.029605 3.014300 -29.138203 23.721310 19.664701 100.939247 0.059300 -0.409900 -4.471800 0.911100 -6.082201 -17.023001 29.263014 6.954009 -33.252213 -10.199198 -17.520395 60.152096 -3.673801 0.497400 -36.268322 -0.000400 -0.122300 0.336100 5.897650 -3.956185 25.568108 3.202899 -0.455200 -0.308000 5.410717 -4.438885 -28.421482 5.115602 -1.042700 -5.571500 0.000000 0.000000 0.000000 -86.988808 26.154404 50.756718 14.489606 -23.430309 -3.020100 0.000000 0.000000 -6.714902 0.000000 0.000000 0.000000 68.881813 42.869110 26.618107 -120.712936 56.117043 -86.251442 0.000000 0.000000 26.869799 
-31.333759 76.358574 -64.764412 3.230999 63.869591 21.173704 -10.793901 -0.184200 -35.874187 23.873106 19.636501 101.390511 0.130900 -0.450000 -6.686698 0.821700 -5.783702 -16.158001 29.746496 4.981002 -28.565214 -9.220600 -16.947599 56.849998 -3.448299 0.053300 -35.244598 -0.283600 3.424799 -9.463903 6.522098 -1.257754 25.090120 2.590700 0.305200 -0.055500 6.409543 -6.586788 -28.637690 5.916000 -1.678199 -5.567700 0.000000 0.000000 0.000000 -83.995911 29.402803 54.110016 16.856998 -26.668892 -4.022999 0.000000 0.000000 -11.195104 0.000000 0.000000 0.000000 65.425407 41.928005 24.603312 -103.129242 59.338539 -71.344940 0.000000 0.000000 27.811899 
